<svg xmlns="http://www.w3.org/2000/svg" viewBox="0 0 64 64" width="64" height="64">
  <!-- Elf Ear -->
  <defs>
    <linearGradient id="earGrad" x1="0%" y1="0%" x2="100%" y2="0%">
      <stop offset="0%" style="stop-color:#FFE4C4"/>
      <stop offset="100%" style="stop-color:#FFDAB9"/>
    </linearGradient>
    <linearGradient id="innerEarGrad" x1="0%" y1="0%" x2="100%" y2="0%">
      <stop offset="0%" style="stop-color:#FFB6C1"/>
      <stop offset="100%" style="stop-color:#FFC0CB"/>
    </linearGradient>
  </defs>
  <!-- Outer ear -->
  <path d="M45 32 Q55 28 58 20 Q60 10 52 8 Q44 6 38 16 Q34 24 36 32 Q38 40 45 42 Q50 40 45 32" fill="url(#earGrad)" stroke="#DEB887" stroke-width="1"/>
  <!-- Inner ear detail -->
  <path d="M44 32 Q50 28 52 22 Q48 20 44 26 Q42 30 44 32" fill="url(#innerEarGrad)"/>
  <!-- Ear ridge -->
  <path d="M40 20 Q46 18 50 14" stroke="#DEB887" stroke-width="1" fill="none"/>
  <!-- Head hint -->
  <ellipse cx="24" cy="32" rx="16" ry="20" fill="url(#earGrad)" opacity="0.3"/>
</svg>
