<svg xmlns="http://www.w3.org/2000/svg" viewBox="0 0 64 64" width="64" height="64">
  <!-- Map/Scroll -->
  <defs>
    <linearGradient id="parchmentGrad" x1="0%" y1="0%" x2="0%" y2="100%">
      <stop offset="0%" style="stop-color:#FFF8DC"/>
      <stop offset="100%" style="stop-color:#F5DEB3"/>
    </linearGradient>
  </defs>
  <!-- Scroll body -->
  <rect x="12" y="12" width="40" height="40" fill="url(#parchmentGrad)"/>
  <!-- Roll on left -->
  <ellipse cx="12" cy="32" rx="4" ry="22" fill="#DEB887"/>
  <ellipse cx="12" cy="32" rx="2" ry="20" fill="url(#parchmentGrad)"/>
  <!-- Roll on right -->
  <ellipse cx="52" cy="32" rx="4" ry="22" fill="#DEB887"/>
  <ellipse cx="52" cy="32" rx="2" ry="20" fill="url(#parchmentGrad)"/>
  <!-- Map content - path -->
  <path d="M18 20 Q24 25 22 32 Q20 38 28 42 Q36 46 44 40" stroke="#8B4513" stroke-width="1.5" fill="none" stroke-dasharray="2 2"/>
  <!-- Landmarks -->
  <circle cx="18" cy="20" r="2" fill="#FF6347"/>
  <text x="18" y="18" font-size="4" fill="#8B4513" text-anchor="middle">S</text>
  <polygon points="44,36 42,42 46,42" fill="#4169E1"/>
  <text x="44" y="34" font-size="4" fill="#8B4513" text-anchor="middle">E</text>
  <!-- Mountains -->
  <path d="M30 28 L34 22 L38 28" stroke="#556B2F" stroke-width="1" fill="none"/>
  <!-- Compass rose -->
  <circle cx="40" cy="48" r="4" fill="none" stroke="#8B4513" stroke-width="0.5"/>
  <line x1="40" y1="44" x2="40" y2="52" stroke="#8B4513" stroke-width="0.5"/>
  <line x1="36" y1="48" x2="44" y2="48" stroke="#8B4513" stroke-width="0.5"/>
</svg>
