<svg xmlns="http://www.w3.org/2000/svg" viewBox="0 0 64 64" width="64" height="64">
  <!-- Demon Skull -->
  <defs>
    <linearGradient id="skullGrad" x1="0%" y1="0%" x2="0%" y2="100%">
      <stop offset="0%" style="stop-color:#F5F5F5"/>
      <stop offset="100%" style="stop-color:#D3D3D3"/>
    </linearGradient>
  </defs>
  <!-- Skull shape -->
  <ellipse cx="32" cy="32" rx="22" ry="24" fill="url(#skullGrad)"/>
  <!-- Horns -->
  <path d="M14 24 Q8 16 12 4 Q16 10 18 22" fill="#4A4A4A"/>
  <path d="M50 24 Q56 16 52 4 Q48 10 46 22" fill="#4A4A4A"/>
  <!-- Eye sockets -->
  <ellipse cx="24" cy="28" rx="6" ry="8" fill="#2F2F2F"/>
  <ellipse cx="40" cy="28" rx="6" ry="8" fill="#2F2F2F"/>
  <!-- Red glowing eyes -->
  <circle cx="24" cy="28" r="3" fill="#FF0000" opacity="0.8"/>
  <circle cx="40" cy="28" r="3" fill="#FF0000" opacity="0.8"/>
  <!-- Nose hole -->
  <path d="M30 38 L32 42 L34 38" fill="#2F2F2F"/>
  <!-- Teeth -->
  <rect x="22" y="46" width="4" height="6" fill="#F5F5F5" stroke="#CCC" stroke-width="0.5"/>
  <rect x="27" y="46" width="4" height="7" fill="#F5F5F5" stroke="#CCC" stroke-width="0.5"/>
  <rect x="33" y="46" width="4" height="7" fill="#F5F5F5" stroke="#CCC" stroke-width="0.5"/>
  <rect x="38" y="46" width="4" height="6" fill="#F5F5F5" stroke="#CCC" stroke-width="0.5"/>
  <!-- Cracks -->
  <path d="M28 16 L30 22 L26 28" stroke="#A0A0A0" stroke-width="0.5" fill="none"/>
</svg>
