<svg xmlns="http://www.w3.org/2000/svg" viewBox="0 0 64 64" width="64" height="64">
  <!-- Luggage/Travel Bag - Journey Theme -->
  <defs>
    <linearGradient id="bagGrad" x1="0%" y1="0%" x2="0%" y2="100%">
      <stop offset="0%" style="stop-color:#6B4423"/>
      <stop offset="100%" style="stop-color:#4A2F1A"/>
    </linearGradient>
  </defs>
  <!-- Main bag body -->
  <rect x="12" y="20" width="40" height="36" rx="3" fill="url(#bagGrad)"/>
  <!-- Flap -->
  <path d="M12 20 Q12 10 32 10 Q52 10 52 20 L52 28 L12 28 Z" fill="url(#bagGrad)"/>
  <!-- Buckle -->
  <rect x="26" y="24" width="12" height="8" rx="1" fill="#FFD700"/>
  <rect x="28" y="26" width="8" height="4" fill="url(#bagGrad)"/>
  <!-- Straps -->
  <rect x="18" y="14" width="4" height="42" fill="#8B4513"/>
  <rect x="42" y="14" width="4" height="42" fill="#8B4513"/>
  <!-- Pocket -->
  <rect x="22" y="36" width="20" height="14" rx="1" fill="#5C3317"/>
  <!-- Handle -->
  <path d="M26 10 Q32 4 38 10" stroke="#8B4513" stroke-width="3" fill="none"/>
  <!-- Metal corners -->
  <rect x="12" y="52" width="4" height="4" fill="#C0C0C0"/>
  <rect x="48" y="52" width="4" height="4" fill="#C0C0C0"/>
</svg>
