<svg xmlns="http://www.w3.org/2000/svg" viewBox="0 0 64 64" width="64" height="64">
  <!-- Winged Emblem -->
  <defs>
    <linearGradient id="wingGrad" x1="0%" y1="0%" x2="100%" y2="100%">
      <stop offset="0%" style="stop-color:#FFFFFF"/>
      <stop offset="100%" style="stop-color:#D3D3D3"/>
    </linearGradient>
    <linearGradient id="crestGrad" x1="0%" y1="0%" x2="0%" y2="100%">
      <stop offset="0%" style="stop-color:#FFD700"/>
      <stop offset="100%" style="stop-color:#B8860B"/>
    </linearGradient>
  </defs>
  <!-- Left wing -->
  <path d="M32 32 Q20 28 8 20 Q6 24 8 32 Q10 40 20 44 Q28 46 32 40 Z" fill="url(#wingGrad)" stroke="#A0A0A0" stroke-width="0.5"/>
  <!-- Left wing feathers -->
  <path d="M28 34 Q18 30 10 24" stroke="#C0C0C0" stroke-width="1" fill="none"/>
  <path d="M26 38 Q16 36 12 32" stroke="#C0C0C0" stroke-width="1" fill="none"/>
  <!-- Right wing -->
  <path d="M32 32 Q44 28 56 20 Q58 24 56 32 Q54 40 44 44 Q36 46 32 40 Z" fill="url(#wingGrad)" stroke="#A0A0A0" stroke-width="0.5"/>
  <!-- Right wing feathers -->
  <path d="M36 34 Q46 30 54 24" stroke="#C0C0C0" stroke-width="1" fill="none"/>
  <path d="M38 38 Q48 36 52 32" stroke="#C0C0C0" stroke-width="1" fill="none"/>
  <!-- Center crest -->
  <circle cx="32" cy="32" r="10" fill="url(#crestGrad)" stroke="#8B6914" stroke-width="1"/>
  <!-- Star in center -->
  <polygon points="32,24 34,30 40,30 35,34 37,40 32,36 27,40 29,34 24,30 30,30" fill="#FFFFFF"/>
  <!-- Ribbon -->
  <path d="M22 42 Q32 48 42 42" stroke="#4169E1" stroke-width="3" fill="none"/>
  <path d="M20 44 L18 52" stroke="#4169E1" stroke-width="2"/>
  <path d="M44 44 L46 52" stroke="#4169E1" stroke-width="2"/>
</svg>
